<mxfile host="app.diagrams.net" agent="Mozilla/5.0 (Windows NT 10.0; Win64; x64; rv:135.0) Gecko/20100101 Firefox/135.0" version="26.0.16">
  <diagram name="Page-1" id="_8Z-U01voDiPmD-Zs1qL">
    <mxGraphModel dx="1434" dy="792" grid="1" gridSize="10" guides="1" tooltips="1" connect="1" arrows="1" fold="1" page="1" pageScale="1" pageWidth="1169" pageHeight="827" math="0" shadow="0">
      <root>
        <mxCell id="0" />
        <mxCell id="1" parent="0" />
        <mxCell id="AjIRWUKQw3XY8S-09eoE-2" value="&lt;div style=&quot;font-size: 12px;&quot;&gt;Reserved&lt;/div&gt;&lt;div style=&quot;font-size: 12px;&quot;&gt;(TBD)&lt;br style=&quot;font-size: 12px;&quot;&gt;&lt;/div&gt;" style="rounded=0;whiteSpace=wrap;html=1;fontSize=12;fontFamily=JetBrains Mono;fontSource=https%3A%2F%2Ffonts.googleapis.com%2Fcss%3Ffamily%3DJetBrains%2BMono;fillColor=#ffff88;strokeColor=#36393d;" parent="1" vertex="1">
          <mxGeometry x="840" y="300" width="120" height="60" as="geometry" />
        </mxCell>
        <mxCell id="5DF6abSAtcW0_sRubqsM-15" style="edgeStyle=orthogonalEdgeStyle;rounded=1;orthogonalLoop=1;jettySize=auto;html=1;exitX=0;exitY=0.25;exitDx=0;exitDy=0;entryX=1;entryY=0.5;entryDx=0;entryDy=0;strokeWidth=2;curved=0;strokeColor=#FFAB2E;startArrow=classic;startFill=1;endArrow=none;endFill=0;" parent="1" source="JKJvemzIVtSR8P2CJAXn-1" target="5DF6abSAtcW0_sRubqsM-13" edge="1">
          <mxGeometry relative="1" as="geometry" />
        </mxCell>
        <mxCell id="5DF6abSAtcW0_sRubqsM-16" value="RCC (HSE)" style="edgeLabel;html=1;align=center;verticalAlign=middle;resizable=0;points=[];fontSize=12;fontFamily=JetBrains Mono;fontSource=https%3A%2F%2Ffonts.googleapis.com%2Fcss%3Ffamily%3DJetBrains%2BMono;labelBackgroundColor=#FFAB2E;labelBorderColor=#FFAB2E;textShadow=0;" parent="5DF6abSAtcW0_sRubqsM-15" vertex="1" connectable="0">
          <mxGeometry x="-0.008" y="-1" relative="1" as="geometry">
            <mxPoint x="-1" y="4" as="offset" />
          </mxGeometry>
        </mxCell>
        <mxCell id="JKJvemzIVtSR8P2CJAXn-3" style="edgeStyle=orthogonalEdgeStyle;rounded=1;orthogonalLoop=1;jettySize=auto;html=1;startArrow=classic;startFill=1;strokeWidth=2;fontSize=12;fontFamily=JetBrains Mono;fontSource=https%3A%2F%2Ffonts.googleapis.com%2Fcss%3Ffamily%3DJetBrains%2BMono;strokeColor=#FFAB2E;fillColor=#ffcc99;curved=0;exitX=0.25;exitY=1;exitDx=0;exitDy=0;" parent="1" source="JKJvemzIVtSR8P2CJAXn-1" target="JKJvemzIVtSR8P2CJAXn-2" edge="1">
          <mxGeometry relative="1" as="geometry">
            <mxPoint x="740" y="480" as="sourcePoint" />
          </mxGeometry>
        </mxCell>
        <mxCell id="JKJvemzIVtSR8P2CJAXn-4" value="SPI1, GPIO_EXTI4, &lt;br&gt;&lt;div&gt;GPIO_Output (x3),&lt;/div&gt;&lt;div&gt;TIM5_CH1&lt;/div&gt;" style="edgeLabel;html=1;align=center;verticalAlign=middle;resizable=0;points=[];fontSize=12;fontFamily=JetBrains Mono;fontSource=https%3A%2F%2Ffonts.googleapis.com%2Fcss%3Ffamily%3DJetBrains%2BMono;labelBackgroundColor=#FFAB2E;labelBorderColor=#FFAB2E;" parent="JKJvemzIVtSR8P2CJAXn-3" vertex="1" connectable="0">
          <mxGeometry x="0.025" y="-3" relative="1" as="geometry">
            <mxPoint x="2" y="3" as="offset" />
          </mxGeometry>
        </mxCell>
        <mxCell id="JKJvemzIVtSR8P2CJAXn-6" style="edgeStyle=orthogonalEdgeStyle;rounded=1;orthogonalLoop=1;jettySize=auto;html=1;exitX=0.995;exitY=0.152;exitDx=0;exitDy=0;entryX=0;entryY=0.5;entryDx=0;entryDy=0;startArrow=classic;startFill=1;strokeWidth=2;fontSize=12;fontFamily=JetBrains Mono;fontSource=https%3A%2F%2Ffonts.googleapis.com%2Fcss%3Ffamily%3DJetBrains%2BMono;strokeColor=#FFAB2E;fillColor=#ffcc99;curved=0;exitPerimeter=0;" parent="1" source="JKJvemzIVtSR8P2CJAXn-1" target="AjIRWUKQw3XY8S-09eoE-2" edge="1">
          <mxGeometry relative="1" as="geometry" />
        </mxCell>
        <mxCell id="JKJvemzIVtSR8P2CJAXn-7" value="&lt;div&gt;USART1&lt;/div&gt;" style="edgeLabel;html=1;align=center;verticalAlign=middle;resizable=0;points=[];fontSize=12;fontFamily=JetBrains Mono;fontSource=https%3A%2F%2Ffonts.googleapis.com%2Fcss%3Ffamily%3DJetBrains%2BMono;labelBackgroundColor=#FFAB2E;labelBorderColor=#FFAB2E;" parent="JKJvemzIVtSR8P2CJAXn-6" vertex="1" connectable="0">
          <mxGeometry x="0.0167" relative="1" as="geometry">
            <mxPoint y="5" as="offset" />
          </mxGeometry>
        </mxCell>
        <mxCell id="JKJvemzIVtSR8P2CJAXn-2" value="BNO085 9-DOF IMU" style="rounded=0;whiteSpace=wrap;html=1;fontSize=12;fontFamily=JetBrains Mono;fontSource=https%3A%2F%2Ffonts.googleapis.com%2Fcss%3Ffamily%3DJetBrains%2BMono;fillColor=#eeeeee;strokeColor=#36393d;" parent="1" vertex="1">
          <mxGeometry x="400" y="640" width="120" height="60" as="geometry" />
        </mxCell>
        <mxCell id="JKJvemzIVtSR8P2CJAXn-10" style="edgeStyle=orthogonalEdgeStyle;rounded=1;orthogonalLoop=1;jettySize=auto;html=1;exitX=0.5;exitY=1;exitDx=0;exitDy=0;entryX=0.25;entryY=0;entryDx=0;entryDy=0;startArrow=classic;startFill=1;strokeWidth=2;fontSize=12;fontFamily=JetBrains Mono;fontSource=https%3A%2F%2Ffonts.googleapis.com%2Fcss%3Ffamily%3DJetBrains%2BMono;strokeColor=#FFAB2E;fillColor=#ffcc99;curved=0;" parent="1" source="JKJvemzIVtSR8P2CJAXn-9" target="JKJvemzIVtSR8P2CJAXn-1" edge="1">
          <mxGeometry relative="1" as="geometry" />
        </mxCell>
        <mxCell id="JKJvemzIVtSR8P2CJAXn-11" value="&lt;div&gt;I2C1, GPIO_EXTI4, &lt;br&gt;&lt;/div&gt;&lt;div&gt;GPIO_Output (x2)&lt;/div&gt;" style="edgeLabel;html=1;align=center;verticalAlign=middle;resizable=0;points=[];fontSize=12;fontFamily=JetBrains Mono;fontSource=https%3A%2F%2Ffonts.googleapis.com%2Fcss%3Ffamily%3DJetBrains%2BMono;labelBackgroundColor=#FFAB2E;labelBorderColor=#FFAB2E;" parent="JKJvemzIVtSR8P2CJAXn-10" vertex="1" connectable="0">
          <mxGeometry x="-0.0235" y="2" relative="1" as="geometry">
            <mxPoint x="3" y="2" as="offset" />
          </mxGeometry>
        </mxCell>
        <mxCell id="JKJvemzIVtSR8P2CJAXn-9" value="&lt;div&gt;VL53L4CD&lt;/div&gt;&lt;div&gt;Time of Flight (TOF) Sensor&lt;/div&gt;" style="rounded=0;whiteSpace=wrap;html=1;fontSize=12;fontFamily=JetBrains Mono;fontSource=https%3A%2F%2Ffonts.googleapis.com%2Fcss%3Ffamily%3DJetBrains%2BMono;fillColor=#eeeeee;strokeColor=#36393d;" parent="1" vertex="1">
          <mxGeometry x="400" y="180" width="120" height="60" as="geometry" />
        </mxCell>
        <mxCell id="JKJvemzIVtSR8P2CJAXn-29" style="edgeStyle=orthogonalEdgeStyle;rounded=1;orthogonalLoop=1;jettySize=auto;html=1;exitX=0.5;exitY=1;exitDx=0;exitDy=0;entryX=0.75;entryY=0;entryDx=0;entryDy=0;startArrow=classic;startFill=1;strokeWidth=2;strokeColor=#FFAB2E;fillColor=#ffcc99;fontSize=12;fontFamily=JetBrains Mono;fontSource=https%3A%2F%2Ffonts.googleapis.com%2Fcss%3Ffamily%3DJetBrains%2BMono;curved=0;" parent="1" source="JKJvemzIVtSR8P2CJAXn-28" target="JKJvemzIVtSR8P2CJAXn-1" edge="1">
          <mxGeometry relative="1" as="geometry" />
        </mxCell>
        <mxCell id="JKJvemzIVtSR8P2CJAXn-31" value="SWD&lt;br style=&quot;font-size: 12px;&quot;&gt;SWO" style="edgeLabel;html=1;align=center;verticalAlign=middle;resizable=0;points=[];fontSize=12;fontFamily=JetBrains Mono;fontSource=https%3A%2F%2Ffonts.googleapis.com%2Fcss%3Ffamily%3DJetBrains%2BMono;labelBackgroundColor=#FFAB2E;labelBorderColor=#FFAB2E;" parent="JKJvemzIVtSR8P2CJAXn-29" vertex="1" connectable="0">
          <mxGeometry x="0.08" y="-2" relative="1" as="geometry">
            <mxPoint x="9" y="2" as="offset" />
          </mxGeometry>
        </mxCell>
        <mxCell id="JKJvemzIVtSR8P2CJAXn-28" value="TC2050 Programming Contact Pads" style="rounded=0;whiteSpace=wrap;html=1;fontSize=12;fontFamily=JetBrains Mono;fontSource=https%3A%2F%2Ffonts.googleapis.com%2Fcss%3Ffamily%3DJetBrains%2BMono;fillColor=#cdeb8b;strokeColor=#36393d;" parent="1" vertex="1">
          <mxGeometry x="680" y="180" width="120" height="60" as="geometry" />
        </mxCell>
        <mxCell id="5DF6abSAtcW0_sRubqsM-4" value="MCU" style="rounded=0;whiteSpace=wrap;html=1;fontSize=12;fontFamily=JetBrains Mono;fontSource=https%3A%2F%2Ffonts.googleapis.com%2Fcss%3Ffamily%3DJetBrains%2BMono;fillColor=#cce5ff;strokeColor=#36393d;" parent="1" vertex="1">
          <mxGeometry x="10" y="50" width="120" height="30" as="geometry" />
        </mxCell>
        <mxCell id="5DF6abSAtcW0_sRubqsM-5" value="Sensor" style="rounded=0;whiteSpace=wrap;html=1;fontSize=12;fontFamily=JetBrains Mono;fontSource=https%3A%2F%2Ffonts.googleapis.com%2Fcss%3Ffamily%3DJetBrains%2BMono;fillColor=#eeeeee;strokeColor=#36393d;" parent="1" vertex="1">
          <mxGeometry x="10" y="130" width="120" height="30" as="geometry" />
        </mxCell>
        <mxCell id="5DF6abSAtcW0_sRubqsM-7" value="Direct control" style="rounded=0;whiteSpace=wrap;html=1;fontSize=12;fontFamily=JetBrains Mono;fontSource=https%3A%2F%2Ffonts.googleapis.com%2Fcss%3Ffamily%3DJetBrains%2BMono;fillColor=#ffff88;strokeColor=#36393d;" parent="1" vertex="1">
          <mxGeometry x="10" y="170" width="120" height="30" as="geometry" />
        </mxCell>
        <mxCell id="5DF6abSAtcW0_sRubqsM-13" value="RCC HSE Crystal" style="rounded=0;whiteSpace=wrap;html=1;fontSize=12;fontFamily=JetBrains Mono;fontSource=https%3A%2F%2Ffonts.googleapis.com%2Fcss%3Ffamily%3DJetBrains%2BMono;" parent="1" vertex="1">
          <mxGeometry x="240" y="370" width="120" height="60" as="geometry" />
        </mxCell>
        <mxCell id="5DF6abSAtcW0_sRubqsM-14" value="Electronic Comp" style="rounded=0;whiteSpace=wrap;html=1;fontSize=12;fontFamily=JetBrains Mono;fontSource=https%3A%2F%2Ffonts.googleapis.com%2Fcss%3Ffamily%3DJetBrains%2BMono;" parent="1" vertex="1">
          <mxGeometry x="10" y="10" width="120" height="30" as="geometry" />
        </mxCell>
        <mxCell id="SegdhEvFkx0hU1wHnUH6-3" value="Dev" style="rounded=0;whiteSpace=wrap;html=1;fontSize=12;fontFamily=JetBrains Mono;fontSource=https%3A%2F%2Ffonts.googleapis.com%2Fcss%3Ffamily%3DJetBrains%2BMono;fillColor=#cdeb8b;strokeColor=#36393d;" parent="1" vertex="1">
          <mxGeometry x="10" y="90" width="120" height="30" as="geometry" />
        </mxCell>
        <mxCell id="AjIRWUKQw3XY8S-09eoE-4" style="edgeStyle=orthogonalEdgeStyle;rounded=1;orthogonalLoop=1;jettySize=auto;html=1;exitX=0.5;exitY=0;exitDx=0;exitDy=0;entryX=0.5;entryY=1;entryDx=0;entryDy=0;strokeWidth=2;curved=0;strokeColor=#FFAB2E;" parent="1" source="JKJvemzIVtSR8P2CJAXn-1" target="AjIRWUKQw3XY8S-09eoE-3" edge="1">
          <mxGeometry relative="1" as="geometry" />
        </mxCell>
        <mxCell id="AjIRWUKQw3XY8S-09eoE-5" value="SPI3, GPIO_EXTI2, &lt;br&gt;&lt;div&gt;GPIO_Output (x3)&lt;/div&gt;" style="edgeLabel;html=1;align=center;verticalAlign=middle;resizable=0;points=[];fontSize=12;fontFamily=JetBrains Mono;fontSource=https%3A%2F%2Ffonts.googleapis.com%2Fcss%3Ffamily%3DJetBrains%2BMono;labelBackgroundColor=#FFAB2E;labelBorderColor=#FFAB2E;" parent="AjIRWUKQw3XY8S-09eoE-4" vertex="1" connectable="0">
          <mxGeometry x="0.19" relative="1" as="geometry">
            <mxPoint as="offset" />
          </mxGeometry>
        </mxCell>
        <mxCell id="JKJvemzIVtSR8P2CJAXn-1" value="STM32F446RE&lt;br style=&quot;font-size: 12px;&quot;&gt;MCU" style="rounded=0;whiteSpace=wrap;html=1;fontFamily=JetBrains Mono;fillColor=#cce5ff;strokeColor=#36393d;fontSize=12;fontSource=https%3A%2F%2Ffonts.googleapis.com%2Fcss%3Ffamily%3DJetBrains%2BMono;" parent="1" vertex="1">
          <mxGeometry x="520" y="360" width="160" height="160" as="geometry" />
        </mxCell>
        <mxCell id="7h3anT5oqjgS57J0SgqP-2" style="edgeStyle=orthogonalEdgeStyle;rounded=1;orthogonalLoop=1;jettySize=auto;html=1;exitX=0;exitY=0.5;exitDx=0;exitDy=0;entryX=1;entryY=0.5;entryDx=0;entryDy=0;strokeWidth=2;strokeColor=#FFAB2E;startArrow=classic;startFill=1;endArrow=none;endFill=0;curved=0;" parent="1" source="7h3anT5oqjgS57J0SgqP-1" target="JKJvemzIVtSR8P2CJAXn-1" edge="1">
          <mxGeometry relative="1" as="geometry" />
        </mxCell>
        <mxCell id="7h3anT5oqjgS57J0SgqP-3" value="TIM1_CH1" style="edgeLabel;html=1;align=center;verticalAlign=middle;resizable=0;points=[];labelBackgroundColor=#FFAB2E;labelBorderColor=#FFAB2E;fontFamily=JetBrains Mono;fontSource=https%3A%2F%2Ffonts.googleapis.com%2Fcss%3Ffamily%3DJetBrains%2BMono;" parent="7h3anT5oqjgS57J0SgqP-2" vertex="1" connectable="0">
          <mxGeometry x="-0.4427" relative="1" as="geometry">
            <mxPoint x="-35" as="offset" />
          </mxGeometry>
        </mxCell>
        <mxCell id="7h3anT5oqjgS57J0SgqP-1" value="&lt;div&gt;WS2812B&lt;/div&gt;&lt;div&gt;PWM RGB LED&lt;/div&gt;(n-in-series)" style="rounded=0;whiteSpace=wrap;html=1;fontSize=12;fontFamily=JetBrains Mono;fontSource=https%3A%2F%2Ffonts.googleapis.com%2Fcss%3Ffamily%3DJetBrains%2BMono;" parent="1" vertex="1">
          <mxGeometry x="840" y="410" width="120" height="60" as="geometry" />
        </mxCell>
        <mxCell id="AjIRWUKQw3XY8S-09eoE-3" value="&lt;div&gt;ADS114S08&lt;/div&gt;&lt;div&gt;ADC IC&lt;/div&gt;" style="rounded=0;whiteSpace=wrap;html=1;fontSize=12;fontFamily=JetBrains Mono;fontSource=https%3A%2F%2Ffonts.googleapis.com%2Fcss%3Ffamily%3DJetBrains%2BMono;" parent="1" vertex="1">
          <mxGeometry x="540" y="100" width="120" height="60" as="geometry" />
        </mxCell>
        <mxCell id="AjIRWUKQw3XY8S-09eoE-6" value="5x Unipolar Stepper Motor Control" style="rounded=0;whiteSpace=wrap;html=1;fontSize=12;fontFamily=JetBrains Mono;fontSource=https%3A%2F%2Ffonts.googleapis.com%2Fcss%3Ffamily%3DJetBrains%2BMono;fillColor=#ffff88;strokeColor=#36393d;" parent="1" vertex="1">
          <mxGeometry x="540" y="720" width="120" height="60" as="geometry" />
        </mxCell>
        <mxCell id="AjIRWUKQw3XY8S-09eoE-7" style="edgeStyle=orthogonalEdgeStyle;rounded=1;orthogonalLoop=1;jettySize=auto;html=1;exitX=0.5;exitY=1;exitDx=0;exitDy=0;entryX=0.5;entryY=0;entryDx=0;entryDy=0;startArrow=classic;startFill=1;strokeWidth=2;fontSize=12;fontFamily=JetBrains Mono;fontSource=https%3A%2F%2Ffonts.googleapis.com%2Fcss%3Ffamily%3DJetBrains%2BMono;strokeColor=#FFAB2E;fillColor=#ffcc99;curved=0;" parent="1" source="JKJvemzIVtSR8P2CJAXn-1" target="AjIRWUKQw3XY8S-09eoE-6" edge="1">
          <mxGeometry relative="1" as="geometry">
            <mxPoint x="379" y="804" as="sourcePoint" />
          </mxGeometry>
        </mxCell>
        <mxCell id="AjIRWUKQw3XY8S-09eoE-8" value="&lt;div&gt;GPIO_Output&lt;/div&gt;&lt;div&gt;(x20)&lt;/div&gt;" style="edgeLabel;html=1;align=center;verticalAlign=middle;resizable=0;points=[];fontSize=12;fontFamily=JetBrains Mono;fontSource=https%3A%2F%2Ffonts.googleapis.com%2Fcss%3Ffamily%3DJetBrains%2BMono;labelBackgroundColor=#FFAB2E;labelBorderColor=#FFAB2E;" parent="AjIRWUKQw3XY8S-09eoE-7" vertex="1" connectable="0">
          <mxGeometry x="0.0167" relative="1" as="geometry">
            <mxPoint y="18" as="offset" />
          </mxGeometry>
        </mxCell>
      </root>
    </mxGraphModel>
  </diagram>
</mxfile>
